<svg width="32" height="32" viewBox="0 0 32 32" fill="none" xmlns="http://www.w3.org/2000/svg">
<path fill-rule="evenodd" clip-rule="evenodd" d="M16.0007 30.6668C7.90048 30.6668 1.33398 24.1003 1.33398 16.0002C1.33398 7.89999 7.90048 1.3335 16.0007 1.3335C24.1008 1.3335 30.6673 7.89999 30.6673 16.0002C30.6673 24.1003 24.1008 30.6668 16.0007 30.6668ZM16 28C22.6274 28 28 22.6274 28 16C28 9.37258 22.6274 4 16 4C9.37258 4 4 9.37258 4 16C4 22.6274 9.37258 28 16 28ZM17.3341 22.6669V13.8858L20.3913 16.943L22.2769 15.0574L16.0008 8.78125L9.72461 15.0574L11.6102 16.943L14.6674 13.8858V22.6669H17.3341Z" fill="#3F4B53"/>
</svg>
