<svg width="32" height="32" viewBox="0 0 32 32" fill="none" xmlns="http://www.w3.org/2000/svg">
<path fill-rule="evenodd" clip-rule="evenodd" d="M15.9993 5.33341C19.1908 5.33341 21.928 6.77168 23.7419 9.33341H21.3327V12.0001H27.9993V5.33341H25.3327V7.02721C23.0325 4.24343 19.7383 2.66675 15.9993 2.66675C8.63555 2.66675 2.66602 8.63628 2.66602 16.0001H5.33268C5.33268 10.109 10.1083 5.33341 15.9993 5.33341ZM16 26.6667C12.8085 26.6667 10.0714 25.2284 8.25742 22.6667H10.6667V20H4V26.6667H6.66667V24.9729C8.96681 27.7567 12.261 29.3333 16 29.3333C23.3638 29.3333 29.3333 23.3638 29.3333 16H26.6667C26.6667 21.891 21.891 26.6667 16 26.6667ZM17.3336 19.9979C17.3336 20.7343 16.7364 21.3312 15.9998 21.3312C15.2632 21.3312 14.666 20.7343 14.666 19.9979C14.666 19.2615 15.2632 18.6645 15.9998 18.6645C16.7364 18.6645 17.3336 19.2615 17.3336 19.9979ZM17.3375 9.33121H14.67V17.3312H17.3375V9.33121Z" fill="#3F4B53"/>
</svg>
