<svg width="32" height="32" viewBox="0 0 32 32" fill="none" xmlns="http://www.w3.org/2000/svg">
<path fill-rule="evenodd" clip-rule="evenodd" d="M3.60925 1.72363L1.72363 3.60925L7.04475 8.93037C5.50875 9.76655 4.06537 10.8344 2.7659 12.1338C2.73245 12.1673 2.69916 12.2008 2.66602 12.2345L4.5517 14.1202C4.58479 14.0865 4.61807 14.0529 4.65152 14.0195C5.96262 12.7084 7.44465 11.6724 9.02587 10.9115L10.9937 12.8794C9.29638 13.5286 7.70498 14.5372 6.33691 15.9052L8.22253 17.7909C9.62539 16.388 11.3218 15.4576 13.114 14.9996L15.4534 17.339C13.5108 17.4141 11.5904 18.1931 10.1074 19.6762L11.993 21.5618C14.0758 19.479 17.4527 19.479 19.5355 21.5618L19.6058 21.4915L28.3903 30.2759L30.2759 28.3903L3.60925 1.72363ZM17.7685 12.1505L23.3582 17.7401L25.1931 15.9052C23.1007 13.8129 20.4859 12.5613 17.7685 12.1505ZM12.5904 6.97237L14.9813 9.36327C19.3537 9.09552 23.815 10.6143 27.1782 13.9196L29.0639 12.034C24.565 7.60146 18.376 5.91426 12.5904 6.97237ZM17.6501 23.4476C16.6087 22.4062 14.9203 22.4062 13.8789 23.4476L15.7645 25.3332L17.6501 23.4476Z" fill="#3F4B53"/>
</svg>
